<svg xmlns="http://www.w3.org/2000/svg" xmlns:xlink="http://www.w3.org/1999/xlink" width="64" height="64" viewBox="0 0 64 64"><defs><path id="a" d="M.06 64V.04H64V64z"/></defs><g fill="none" fill-rule="evenodd"><path fill="#FFFFFE" d="M45.229 40.986L23.014 18.771A15.904 15.904 0 0 1 32 16c8.822 0 16 7.178 16 16 0 3.329-1.024 6.423-2.771 8.986zM32 48c-8.822 0-16-7.178-16-16 0-3.329 1.024-6.423 2.771-8.986l22.215 22.215A15.904 15.904 0 0 1 32 48zm0-38c-12.15 0-22 9.85-22 22s9.85 22 22 22 22-9.85 22-22-9.85-22-22-22z"/><mask id="b" fill="#fff"><use xlink:href="#a"/></mask><path fill="#4C5665" d="M16 32c0 8.822 7.178 16 16 16 3.329 0 6.423-1.024 8.986-2.771L18.771 23.014A15.904 15.904 0 0 0 16 32" mask="url(#b)"/><path fill="#4C5665" d="M32 54c-12.15 0-22-9.85-22-22s9.85-22 22-22 22 9.85 22 22-9.85 22-22 22zm0-54C14.327 0 0 14.327 0 32c0 17.673 14.327 32 32 32 17.673 0 32-14.327 32-32C64 14.327 49.673 0 32 0z" mask="url(#b)"/><path fill="#4C5665" d="M32 16a15.904 15.904 0 0 0-8.986 2.771l22.215 22.215A15.904 15.904 0 0 0 48 32c0-8.822-7.178-16-16-16"/></g></svg>